<?xml version="1.0" encoding="UTF-8"?>
<!-- Generator: visioncortex VTracer 0.6.2 -->
<svg version="1.1" xmlns="http://www.w3.org/2000/svg" width="1280" height="720">
<path d="M0 0 C1.01989014 0.00142502 2.03978027 0.00285004 3.09057617 0.00431824 C4.24517334 0.00124161 5.39977051 -0.00183502 6.58935547 -0.00500488 C7.84143799 0.00218063 9.09352051 0.00936615 10.38354492 0.01676941 C11.66334229 0.01722763 12.94313965 0.01768585 14.26171875 0.01815796 C16.97197892 0.01972296 19.68210703 0.02801362 22.39233398 0.04142761 C25.86946673 0.05841752 29.34645427 0.06224195 32.82362366 0.06148243 C36.13528359 0.06181948 39.44689573 0.07065672 42.75854492 0.07926941 C44.01062744 0.08038223 45.26270996 0.08149506 46.55273438 0.0826416 C47.70733154 0.08902145 48.86192871 0.09540131 50.05151367 0.10197449 C51.58134888 0.10769218 51.58134888 0.10769218 53.14208984 0.11352539 C55.57104492 0.24723816 55.57104492 0.24723816 57.57104492 1.24723816 C57.57104492 30.28723816 57.57104492 59.32723816 57.57104492 89.24723816 C90.24104492 89.24723816 122.91104492 89.24723816 156.57104492 89.24723816 C156.49183214 60.70545256 156.49183214 60.70545256 156.39086914 32.16374207 C156.38183594 26.65031433 156.38183594 26.65031433 156.38015747 24.07130432 C156.37708123 22.26554887 156.3700367 20.45979758 156.3598938 18.65406799 C156.34531593 15.92284479 156.34323084 13.19187318 156.34399414 10.46061707 C156.33679792 9.65276575 156.32960171 8.84491444 156.32218742 8.01258278 C156.34299225 2.47529083 156.34299225 2.47529083 158.57104492 0.24723816 C161.03796387 0 161.03796387 0 164.18237305 0.00431824 C165.35699097 0.00124161 166.53160889 -0.00183502 167.74182129 -0.00500488 C169.01577759 0.00218063 170.28973389 0.00936615 171.60229492 0.01676941 C173.55528503 0.01745674 173.55528503 0.01745674 175.54772949 0.01815796 C178.30506717 0.01972301 181.06227505 0.02801407 183.81958008 0.04142761 C187.35724636 0.05841753 190.89476993 0.06224195 194.43247223 0.06148243 C197.80159898 0.06181946 201.17067874 0.07065664 204.53979492 0.07926941 C206.45072937 0.08093864 206.45072937 0.08093864 208.40026855 0.0826416 C209.57488647 0.08902145 210.74950439 0.09540131 211.9597168 0.10197449 C213.51619934 0.10769218 213.51619934 0.10769218 215.10412598 0.11352539 C217.57104492 0.24723816 217.57104492 0.24723816 219.57104492 1.24723816 C219.57104492 81.43723816 219.57104492 161.62723816 219.57104492 244.24723816 C199.44104492 244.24723816 179.31104492 244.24723816 158.57104492 244.24723816 C156.57104492 242.24723816 156.57104492 242.24723816 156.32494926 240.45502281 C156.32679285 239.72680635 156.32863644 238.9985899 156.33053589 238.24830627 C156.3264119 236.9946804 156.3264119 236.9946804 156.32220459 235.71572876 C156.33299042 234.33792992 156.33299042 234.33792992 156.34399414 232.93229675 C156.34370209 231.96640121 156.34341003 231.00050568 156.34310913 230.00534058 C156.3445062 226.8020286 156.36008518 223.59894716 156.37573242 220.39567566 C156.37946121 218.17893094 156.38230881 215.96218458 156.38430786 213.74543762 C156.39195489 207.902669 156.41161255 202.05999934 156.43371582 196.2172699 C156.45415124 190.25852294 156.46330464 184.29976004 156.47338867 178.34098816 C156.49485743 166.64302794 156.52900625 154.94514127 156.57104492 143.24723816 C143.9410303 143.35456143 131.31107494 143.46715795 118.68116856 143.58657742 C112.81725044 143.64185482 106.95332738 143.69528238 101.08935547 143.74455261 C95.43538347 143.79212528 89.78147426 143.84446523 84.12757683 143.90017891 C81.96532685 143.92063474 79.80305964 143.93934234 77.6407795 143.95631218 C74.62341167 143.980285 71.60616373 144.01034891 68.58886719 144.04191589 C67.68544083 144.04767136 66.78201447 144.05342682 65.85121155 144.05935669 C61.89380369 143.71414951 61.89380369 143.71414951 58.57104492 145.24723816 C58.44565799 148.32106212 58.38491631 151.37348825 58.36572266 154.44865417 C58.35582306 155.41440369 58.34592346 156.3801532 58.33572388 157.37516785 C58.30400592 160.58380132 58.27931092 163.79244964 58.25463867 167.00114441 C58.23407802 169.21932369 58.2130818 171.43749898 58.19166565 173.65567017 C58.1363531 179.50659457 58.08698446 185.35755486 58.03881836 191.20854187 C57.97986013 198.22195632 57.91358185 205.23530489 57.84851837 212.24866486 C57.7503934 222.91481587 57.66161634 233.58100827 57.57104492 244.24723816 C37.44104492 244.24723816 17.31104492 244.24723816 -3.42895508 244.24723816 C-5.16670785 240.77173262 -4.56906201 236.73494041 -4.56266785 232.90885925 C-4.5649334 231.92850897 -4.56719896 230.94815868 -4.56953317 229.93810081 C-4.57589539 226.63228067 -4.57504239 223.32650128 -4.57421875 220.02067566 C-4.57720882 217.65912319 -4.580611 215.29757122 -4.58439636 212.9360199 C-4.59233391 207.1750936 -4.59545164 201.4141798 -4.59600874 195.65324831 C-4.59648336 190.97272375 -4.59853542 186.29220257 -4.60170937 181.61167908 C-4.61051812 168.35261817 -4.61512832 155.09356536 -4.61437889 141.8345015 C-4.61433894 141.11927882 -4.61429898 140.40405613 -4.61425781 139.66716003 C-4.61421693 138.95106811 -4.61417605 138.23497619 -4.61413393 137.49718451 C-4.61372724 125.88476736 -4.62330192 114.2723826 -4.63739618 102.65997481 C-4.65174125 90.7473088 -4.65866742 78.8346586 -4.6578024 66.92198372 C-4.65746982 60.22950498 -4.66024378 53.53706021 -4.67098045 46.84458923 C-4.68061995 40.55410737 -4.68076931 34.26369751 -4.67346382 27.9732132 C-4.67241285 25.65841823 -4.67481097 23.34361888 -4.68082428 21.02883148 C-4.68847499 17.88100702 -4.68394571 14.73343559 -4.67619324 11.58561707 C-4.6813368 10.6589794 -4.68648036 9.73234173 -4.69177979 8.77762413 C-4.6462466 0.47293154 -4.6462466 0.47293154 0 0 Z M157.57104492 2.24723816 C157.57104492 31.28723816 157.57104492 60.32723816 157.57104492 90.24723816 C157.90104492 90.24723816 158.23104492 90.24723816 158.57104492 90.24723816 C158.57104492 61.20723816 158.57104492 32.16723816 158.57104492 2.24723816 C158.24104492 2.24723816 157.91104492 2.24723816 157.57104492 2.24723816 Z " fill="#223795" transform="translate(749.428955078125,327.7527618408203)"/>
<path d="M0 0 C1.01989014 0.00142502 2.03978027 0.00285004 3.09057617 0.00431824 C4.24517334 0.00124161 5.39977051 -0.00183502 6.58935547 -0.00500488 C7.84143799 0.00218063 9.09352051 0.00936615 10.38354492 0.01676941 C11.66334229 0.01722763 12.94313965 0.01768585 14.26171875 0.01815796 C16.97197892 0.01972296 19.68210703 0.02801362 22.39233398 0.04142761 C25.86946673 0.05841752 29.34645427 0.06224195 32.82362366 0.06148243 C36.13528359 0.06181948 39.44689573 0.07065672 42.75854492 0.07926941 C44.01062744 0.08038223 45.26270996 0.08149506 46.55273438 0.0826416 C47.70733154 0.08902145 48.86192871 0.09540131 50.05151367 0.10197449 C51.58134888 0.10769218 51.58134888 0.10769218 53.14208984 0.11352539 C55.57104492 0.24723816 55.57104492 0.24723816 57.57104492 1.24723816 C57.57435507 1.87063048 57.57766521 2.49402281 57.58107567 3.13630581 C57.66267914 18.38068642 57.75488973 33.62496401 57.85857201 48.86920834 C57.90846454 56.24153557 57.95490777 63.61385297 57.99291992 70.98625183 C58.02610203 77.42010805 58.06607261 83.85388223 58.11383498 90.28764731 C58.13884277 93.686938 58.1606961 97.0861761 58.17438889 100.48553276 C58.29209448 126.77219239 60.0786945 148.72268217 72.57104492 172.24723816 C72.94358398 173.03872253 73.31612305 173.83020691 73.69995117 174.64567566 C74.89979234 176.85166166 76.30846003 177.21291364 78.57104492 178.24723816 C79.31354492 178.86598816 80.05604492 179.48473816 80.82104492 180.12223816 C92.28220412 188.97858844 106.53492346 190.45845925 120.57104492 189.24723816 C132.20356378 187.40375544 144.40181802 181.71061767 151.57104492 172.24723816 C162.95360109 155.61902971 165.87518772 136.77490758 165.8581543 116.93962097 C165.86498734 115.69233215 165.87182037 114.44504333 165.87886047 113.15995789 C165.89234173 110.48091085 165.9024525 107.80212075 165.90657043 105.12306976 C165.91336037 100.88710292 165.93519368 96.65129003 165.95910645 92.41539001 C166.01186777 82.67764036 166.04568702 72.93984385 166.07886505 63.20201111 C166.10956334 54.23537136 166.14428771 45.26879964 166.19517565 36.30224872 C166.21852097 32.0895554 166.23226281 27.87697292 166.23867035 23.66422129 C166.2459797 20.44348186 166.26598901 17.22281605 166.28393555 14.00212097 C166.28246269 12.25055695 166.28246269 12.25055695 166.28096008 10.46360779 C166.28923325 9.40407898 166.29750641 8.34455017 166.30603027 7.25291443 C166.30896339 6.32902546 166.31189651 5.40513649 166.31491852 4.45325089 C166.57104492 2.24723816 166.57104492 2.24723816 168.57104492 0.24723816 C171.03796387 0 171.03796387 0 174.18237305 0.00431824 C175.35699097 0.00124161 176.53160889 -0.00183502 177.74182129 -0.00500488 C179.01577759 0.00218063 180.28973389 0.00936615 181.60229492 0.01676941 C183.55528503 0.01745674 183.55528503 0.01745674 185.54772949 0.01815796 C188.30506717 0.01972301 191.06227505 0.02801407 193.81958008 0.04142761 C197.35724636 0.05841753 200.89476993 0.06224195 204.43247223 0.06148243 C207.80159898 0.06181946 211.17067874 0.07065664 214.53979492 0.07926941 C216.45072937 0.08093864 216.45072937 0.08093864 218.40026855 0.0826416 C219.57488647 0.08902145 220.74950439 0.09540131 221.9597168 0.10197449 C223.51619934 0.10769218 223.51619934 0.10769218 225.10412598 0.11352539 C227.57104492 0.24723816 227.57104492 0.24723816 229.57104492 1.24723816 C229.64153334 18.22557729 229.69422616 35.20386991 229.72648144 52.1823225 C229.74186487 60.06802488 229.76278841 67.95363565 229.79736328 75.83927917 C229.82752981 82.72285241 229.8466816 89.60635922 229.85331041 96.48999673 C229.85717722 100.12536471 229.86607983 103.7605429 229.88823509 107.39584923 C230.06731507 138.01603979 228.48554692 177.11771447 205.94604492 201.03239441 C205.16229492 201.76329285 204.37854492 202.49419128 203.57104492 203.24723816 C201.51834029 205.08912428 201.51834029 205.08912428 200.57104492 207.24723816 C199.4711697 208.23430567 198.34198562 209.18904595 197.19604492 210.12223816 C195.11901915 211.85661813 193.51472004 213.32233801 191.88354492 215.49723816 C190.57104492 217.24723816 190.57104492 217.24723816 188.50854492 218.24723816 C186.4182892 219.06120256 186.4182892 219.06120256 185.82495117 221.06364441 C183.0178558 225.95201299 176.38568211 228.49522904 171.57104492 231.24723816 C170.78600586 231.71516785 170.0009668 232.18309753 169.19213867 232.66520691 C163.65707957 235.72483707 157.77937758 237.58398729 151.75854492 239.43473816 C150.54992798 239.81009705 150.54992798 239.81009705 149.31689453 240.19303894 C137.10576331 243.78819432 124.97105854 244.62729353 112.32104492 244.55973816 C111.59360077 244.55758301 110.86615662 244.55542786 110.1166687 244.5532074 C78.57148054 244.40327903 51.89399201 234.74842229 28.82104492 212.93473816 C5.07344945 188.08771697 -4.58696443 154.85577497 -4.57421875 121.14006042 C-4.57925667 119.21170097 -4.57925667 119.21170097 -4.58439636 117.24438477 C-4.593167 113.74489021 -4.59557127 110.24542014 -4.59621215 106.74591565 C-4.59692556 104.55833958 -4.59906516 102.37076965 -4.60170937 100.18319511 C-4.6109333 92.54934674 -4.61504716 84.91551575 -4.61425781 77.28166199 C-4.61365485 70.16568013 -4.62425687 63.04977355 -4.64000148 55.93381077 C-4.65305462 49.81644762 -4.65844279 43.69910919 -4.6578024 37.58173221 C-4.65754715 33.930952 -4.66041437 30.28023906 -4.67098045 26.62947273 C-4.68241464 22.56914673 -4.67792847 18.50899173 -4.671875 14.44865417 C-4.68030426 12.62920288 -4.68030426 12.62920288 -4.68890381 10.772995 C-4.68261208 9.12237816 -4.68261208 9.12237816 -4.67619324 7.43841553 C-4.676738 6.47853509 -4.67728277 5.51865465 -4.67784405 4.52968693 C-4.3151929 1.20397639 -3.30022525 0.33592289 0 0 Z M-3.42895508 129.24723816 C-3.42895508 130.89723816 -3.42895508 132.54723816 -3.42895508 134.24723816 C-3.09895508 134.24723816 -2.76895508 134.24723816 -2.42895508 134.24723816 C-2.42895508 132.59723816 -2.42895508 130.94723816 -2.42895508 129.24723816 C-2.75895508 129.24723816 -3.08895508 129.24723816 -3.42895508 129.24723816 Z M166.57104492 130.24723816 C167.57104492 133.24723816 167.57104492 133.24723816 167.57104492 133.24723816 Z M-2.42895508 141.24723816 C-1.42895508 143.24723816 -1.42895508 143.24723816 -1.42895508 143.24723816 Z " fill="#213694" transform="translate(61.428955078125,327.7527618408203)"/>
<path d="M0 0 C2.61599768 -0.00134905 5.23199512 -0.00329158 7.84799194 -0.00579834 C13.30281637 -0.00941446 18.75758623 -0.00469583 24.21240234 0.00488281 C30.51219177 0.01581765 36.81185222 0.01219613 43.11163867 0.00123 C49.19747352 -0.00893729 55.28325123 -0.00786631 61.36909103 -0.00200653 C63.95033155 -0.00067196 66.53157537 -0.00231101 69.11281204 -0.00696564 C72.70762208 -0.01203097 76.30218136 -0.00432283 79.89697266 0.00683594 C80.96398407 0.00278748 82.03099548 -0.00126099 83.13034058 -0.00543213 C84.10847717 0.00020752 85.08661377 0.00584717 86.09439087 0.01165771 C87.36684379 0.01278879 87.36684379 0.01278879 88.66500282 0.01394272 C91.16331035 0.28780928 92.80077048 1.01204109 94.9609375 2.265625 C92.62760417 4.59895833 90.29427083 6.93229167 87.9609375 9.265625 C87.45949219 9.77867187 86.95804688 10.29171875 86.44140625 10.8203125 C84.88887553 12.33597573 83.26233192 13.70135764 81.5859375 15.078125 C78.30673023 17.86923224 75.64791211 20.88968254 72.9609375 24.265625 C68.78777153 29.25386245 64.59628773 33.91196945 59.5859375 38.078125 C55.09169641 41.89054747 51.10569979 46.13145738 48.3112793 51.34106445 C46.25499788 53.77617344 45.10901038 54.23895034 41.92401123 54.81271362 C37.87164094 55.0093107 33.85585801 55.017203 29.80078125 54.96484375 C28.28966765 54.96848191 26.77855863 54.97519045 25.26747131 54.9848175 C21.28844004 55.00388108 17.31028134 54.98987887 13.33129883 54.96630859 C6.98923919 54.93194119 0.64740711 54.93796049 -5.69466972 54.9624424 C-7.89263476 54.96478348 -10.08975308 54.94712863 -12.28761292 54.9271698 C-20.63850867 54.90165723 -28.03810628 55.85802789 -36.0390625 58.265625 C-37.09849815 58.51242256 -37.09849815 58.51242256 -38.17933655 58.76420593 C-42.2174109 59.71724303 -44.53672014 60.92916852 -47.0390625 64.265625 C-49.22463601 69.29244407 -50.02189606 73.68568691 -48.0390625 78.890625 C-45.21204243 82.24771133 -42.01106703 83.53957068 -38.0390625 85.265625 C-37.31074219 85.61753906 -36.58242188 85.96945312 -35.83203125 86.33203125 C-32.22388624 88.04447836 -28.863977 89.34524918 -24.95239258 90.17651367 C-17.5380186 91.79585653 -10.21970272 93.7817224 -2.88671875 95.73168945 C-1.09055574 96.20762755 0.70663156 96.67971891 2.50488281 97.14770508 C27.48663119 103.65078083 58.17598317 111.92982037 74.9609375 133.265625 C74.9609375 133.925625 74.9609375 134.585625 74.9609375 135.265625 C75.6209375 135.265625 76.2809375 135.265625 76.9609375 135.265625 C88.65425584 149.76533975 88.28323264 168.64430233 86.9609375 186.265625 C86.27890353 191.49758337 84.89640776 196.35691589 82.9609375 201.265625 C82.6103125 202.16667969 82.2596875 203.06773437 81.8984375 203.99609375 C74.15787998 221.33171737 58.98603306 231.71957961 41.87890625 238.484375 C21.85052633 245.27191325 0.70742085 244.739446 -20.15437603 244.77173591 C-24.27698479 244.78124377 -28.39949029 244.80745491 -32.52203369 244.83174133 C-40.29515151 244.87507396 -48.06824893 244.9038234 -55.84144998 244.92706472 C-64.70516728 244.9542968 -73.56877898 244.99819557 -82.43242025 245.04335344 C-100.63457821 245.13572247 -118.83676417 245.20761934 -137.0390625 245.265625 C-133.22966287 237.53138939 -128.22072751 232.23248312 -122.0390625 226.265625 C-121.0490625 225.275625 -121.0490625 225.275625 -120.0390625 224.265625 C-118.89717801 223.30258989 -117.75092665 222.34472083 -116.6015625 221.390625 C-114.01065473 219.17822433 -111.99269644 217.068665 -110.0390625 214.265625 C-108.59810633 212.53821369 -107.12741873 210.83897435 -105.65234375 209.140625 C-104.57086325 207.88369852 -103.50576542 206.61250068 -102.45703125 205.328125 C-101.94785156 204.709375 -101.43867188 204.090625 -100.9140625 203.453125 C-100.22957031 202.60814453 -100.22957031 202.60814453 -99.53125 201.74609375 C-97.84126854 200.0693844 -96.15890136 199.32137152 -94.0390625 198.265625 C-92.3247007 196.30635437 -90.65501082 194.30682288 -89.0390625 192.265625 C-86.41156747 189.63812997 -84.52430388 190.01805254 -80.947052 189.98664856 C-80.09255463 189.98920151 -79.23805725 189.99175446 -78.35766602 189.99438477 C-77.00847832 189.98654465 -77.00847832 189.98654465 -75.6320343 189.97854614 C-73.67317518 189.96828494 -71.71428863 189.96252206 -69.75540352 189.96066475 C-66.64783622 189.95700756 -63.54058995 189.94029456 -60.43309021 189.91990662 C-51.59550984 189.86445994 -42.7578802 189.83392978 -33.92016602 189.80932617 C-28.51664544 189.79337529 -23.11334812 189.76306664 -17.70994377 189.72456169 C-15.65644658 189.71296594 -13.60290928 189.70698182 -11.54937935 189.70688057 C3.47730485 189.86277822 3.47730485 189.86277822 17.9609375 186.265625 C18.86158432 185.94022232 19.76223114 185.61481964 20.69017029 185.27955627 C23.097128 184.51028384 23.097128 184.51028384 23.7578125 182.4453125 C24.68927289 172.86897266 24.68927289 172.86897266 20.9609375 164.265625 C9.55903498 153.87722493 -9.53009094 151.7148671 -24.07861328 148.14331055 C-41.25715352 143.90984402 -58.2315928 139.38463668 -74.0390625 131.265625 C-75.54533203 130.49992187 -75.54533203 130.49992187 -77.08203125 129.71875 C-85.2045129 125.30549995 -91.53889195 119.73745179 -98.0390625 113.265625 C-98.7196875 112.61980469 -99.4003125 111.97398437 -100.1015625 111.30859375 C-109.94383634 101.22465694 -113.33514021 87.92248653 -113.27905273 74.26586914 C-113.06446476 61.4355643 -108.70460073 46.22363826 -99.50976562 36.67797852 C-99.02443359 36.21190186 -98.53910156 35.7458252 -98.0390625 35.265625 C-97.4821875 34.54375 -96.9253125 33.821875 -96.3515625 33.078125 C-84.38254811 18.5212156 -67.31351283 9.8485786 -49.4765625 4.453125 C-48.84137695 4.25823486 -48.20619141 4.06334473 -47.55175781 3.86254883 C-31.96371567 -0.55640015 -16.04463094 -0.02919581 0 0 Z M-27.0390625 1.265625 C-23.0390625 2.265625 -23.0390625 2.265625 -23.0390625 2.265625 Z M-112.0390625 67.265625 C-111.0390625 69.265625 -111.0390625 69.265625 -111.0390625 69.265625 Z M-112.0390625 83.265625 C-111.0390625 85.265625 -111.0390625 85.265625 -111.0390625 85.265625 Z M-87.0390625 191.265625 C-87.0390625 191.595625 -87.0390625 191.925625 -87.0390625 192.265625 C-58.9890625 192.265625 -30.9390625 192.265625 -2.0390625 192.265625 C-2.0390625 191.935625 -2.0390625 191.605625 -2.0390625 191.265625 C-30.0890625 191.265625 -58.1390625 191.265625 -87.0390625 191.265625 Z " fill="#213694" transform="translate(429.0390625,327.734375)"/>
<path d="M0 0 C0.0701309 8.19858329 0.12312627 16.39703707 0.15543652 24.59584808 C0.17095947 28.40466559 0.19194625 32.21327491 0.22631836 36.02197266 C0.25939789 39.71137985 0.27695289 43.40058939 0.28463173 47.09013367 C0.29008962 48.48364872 0.30074107 49.87715545 0.31719017 51.27058411 C0.49981472 67.41274694 -0.92067359 82.52833934 -11.93945312 94.94873047 C-15.3617784 98.35564717 -19.27860206 100.79167032 -23.375 103.3125 C-25.17061111 104.44785626 -26.96618346 105.58327384 -28.76171875 106.71875 C-29.65036621 107.27433594 -30.53901367 107.82992187 -31.45458984 108.40234375 C-35.05914351 110.66478373 -38.6221855 112.98895289 -42.1875 115.3125 C-50.36279332 120.60859971 -58.57301839 125.85017901 -66.7800293 131.09692383 C-73.3588162 135.30437455 -79.92443252 139.53105559 -86.4753418 143.78173828 C-92.73700112 147.84006826 -99.02484082 151.85710863 -105.3125 155.875 C-115.53940126 162.41304166 -125.74164148 168.98658613 -135.89794922 175.63378906 C-137.81998723 176.88300215 -139.75251364 178.11311622 -141.69140625 179.3359375 C-151.36431699 185.53134782 -157.15086502 191.63484514 -160.54051208 202.77667236 C-161.09528063 205.46103511 -161.11959195 207.94443692 -161.11352539 210.68652344 C-161.11344986 211.82740417 -161.11337433 212.96828491 -161.11329651 214.14373779 C-161.10813522 215.36989807 -161.10297394 216.59605835 -161.09765625 217.859375 C-161.0962413 219.11888977 -161.09482635 220.37840454 -161.09336853 221.67608643 C-161.08872073 225.01665119 -161.07974281 228.35714721 -161.06866455 231.69769287 C-161.05841598 235.1096538 -161.05386354 238.52162185 -161.04882812 241.93359375 C-161.03779963 248.6224148 -161.02106189 255.31120343 -161 262 C-161.66 262 -162.32 262 -163 262 C-164.24779032 260.03704927 -165.42216498 258.02726226 -166.5625 256 C-173.18897921 244.88799622 -182.49485331 239.2724557 -193.3984375 232.77734375 C-197.43421791 230.36470325 -201.35894514 227.82569576 -205.25 225.1875 C-211.39044906 221.03657656 -217.61538966 217.03132969 -223.875 213.0625 C-233.28545631 207.09528554 -242.65451726 201.06831832 -252 195 C-254.66595518 193.26973377 -257.33262133 191.54057098 -260 189.8125 C-260.67957764 189.37212402 -261.35915527 188.93174805 -262.05932617 188.47802734 C-267.47326453 184.97521599 -272.90606399 181.50242718 -278.34204102 178.03393555 C-282.61375069 175.3061025 -286.88030393 172.5702953 -291.14501953 169.83154297 C-292.91249764 168.69766057 -294.68142092 167.56602319 -296.45263672 166.43798828 C-310.11441975 157.72537948 -320.57174784 149.22320763 -324.58456421 132.66430664 C-325.5486468 126.48137369 -325.23945301 120.1502396 -325.1953125 113.90625 C-325.19157684 112.34826846 -325.18873248 110.79028455 -325.18673706 109.2322998 C-325.17914408 105.15524677 -325.15953344 101.07833892 -325.1373291 97.00134277 C-325.11677669 92.83164432 -325.10771535 88.66192214 -325.09765625 84.4921875 C-325.07628294 76.32805879 -325.04220011 68.16404751 -325 60 C-320.27252643 61.48535443 -316.53919517 63.42278772 -312.5 66.25 C-306.12072766 70.60865528 -299.6532607 74.80543268 -293.125 78.9375 C-286.62789331 83.05621635 -280.13923965 87.18552781 -273.6875 91.375 C-266.70752954 95.90651246 -259.70021419 100.39434653 -252.6875 104.875 C-244.30372107 110.23292663 -235.94291031 115.62363479 -227.609375 121.05932617 C-221.91416537 124.76909705 -216.19465179 128.43936511 -210.46484375 132.09545898 C-206.23993004 134.79236643 -202.02054647 137.49784124 -197.80224609 140.20507812 C-196.06266831 141.31932938 -194.32116176 142.43058287 -192.57666016 143.53710938 C-179.88480235 151.59128452 -171.10882032 159.49095559 -164 173 C-162.77252246 171.99709602 -162.77252246 171.99709602 -162.90666199 169.97964478 C-162.92094742 169.09126923 -162.93523285 168.20289368 -162.94995117 167.28759766 C-162.96293747 166.28209869 -162.97592377 165.27659973 -162.98930359 164.2406311 C-163.00701309 163.14286346 -163.0247226 162.04509583 -163.04296875 160.9140625 C-163.06538176 158.59766505 -163.08683441 156.28125815 -163.10742188 153.96484375 C-163.14433901 150.30686927 -163.18710197 146.64937672 -163.24682617 142.99169922 C-163.30174672 139.4657519 -163.33054385 135.9403336 -163.35546875 132.4140625 C-163.39114204 130.79777451 -163.39114204 130.79777451 -163.42753601 129.14883423 C-163.45914685 119.8619228 -161.0509716 111.79058516 -156.25 103.8125 C-155.82203125 103.07644531 -155.3940625 102.34039062 -154.953125 101.58203125 C-148.90982692 93.59279119 -141.52171912 88.40504756 -133.0625 83.1875 C-130.81358392 81.77508689 -128.56488625 80.36232597 -126.31640625 78.94921875 C-125.22859863 78.27036621 -124.14079102 77.59151367 -123.02001953 76.89208984 C-119.15273053 74.46917232 -115.32267976 71.99244847 -111.5 69.5 C-104.58307504 65.00939059 -97.63669809 60.56546231 -90.6875 56.125 C-83.10554501 51.27945803 -75.5375274 46.41437566 -68 41.5 C-60.46247139 36.58562355 -52.89437618 31.72066687 -45.3125 26.875 C-38.09617086 22.26233161 -30.88098607 17.64823859 -23.6875 13 C-22.67647217 12.34849976 -22.67647217 12.34849976 -21.64501953 11.68383789 C-18.54629422 9.67998522 -15.47234278 7.65033145 -12.4375 5.55078125 C-10.82875 4.44283203 -10.82875 4.44283203 -9.1875 3.3125 C-7.81658203 2.34763672 -7.81658203 2.34763672 -6.41796875 1.36328125 C-4 0 -4 0 0 0 Z M-162 120 C-161 122 -161 122 -161 122 Z M-324 128 C-323 130 -323 130 -323 130 Z M-163 175 C-163.33 175.66 -163.66 176.32 -164 177 C-163.01 178.485 -163.01 178.485 -162 180 C-162 178.35 -162 176.7 -162 175 C-162.33 175 -162.66 175 -163 175 Z " fill="#EC1D25" transform="translate(1232,67)"/>
<path d="M0 0 C0.69041807 -0.00155999 1.38083613 -0.00311998 2.09217596 -0.00472724 C4.41681872 -0.00873125 6.74139673 -0.00554991 9.06604004 -0.00241089 C10.72809386 -0.00376519 12.39014737 -0.00554529 14.05220032 -0.00772095 C18.57480666 -0.01229179 23.09739027 -0.01050715 27.61999702 -0.00734186 C32.34497261 -0.00481647 37.06994621 -0.0071563 41.79492188 -0.00872803 C49.73083853 -0.0105492 57.66674589 -0.00814479 65.60266113 -0.00338745 C74.78783269 0.00205507 83.97298204 0.00029237 93.15815306 -0.00521386 C101.03332062 -0.00974648 108.90848148 -0.0103948 116.78364992 -0.00777519 C121.49197535 -0.00621324 126.20029034 -0.00601641 130.90861511 -0.00931168 C135.33428172 -0.01219255 139.75991962 -0.01021068 144.18558311 -0.00441742 C145.81342712 -0.00309099 147.44127353 -0.00348197 149.06911659 -0.00568008 C151.28414788 -0.00839615 153.49908604 -0.00500482 155.71411133 0 C156.95593422 0.00037703 158.19775711 0.00075405 159.477211 0.0011425 C162.35705566 0.12698364 162.35705566 0.12698364 164.35705566 1.12698364 C164.35705566 18.61698364 164.35705566 36.10698364 164.35705566 54.12698364 C137.95705566 54.12698364 111.55705566 54.12698364 84.35705566 54.12698364 C83.86205566 148.17698364 83.86205566 148.17698364 83.35705566 244.12698364 C63.22705566 244.12698364 43.09705566 244.12698364 22.35705566 244.12698364 C20.86047102 241.13381435 21.22355693 238.0690544 21.23680115 234.78723145 C21.23594672 234.0218983 21.2350923 233.25656516 21.23421198 232.46804011 C21.23255793 229.88997573 21.23807734 227.31197567 21.24353027 224.73391724 C21.24381219 222.89128114 21.24365433 221.04864494 21.24308777 219.20600891 C21.24279996 214.19181467 21.24869406 209.17764419 21.25566173 204.16345549 C21.26189797 198.92771747 21.26249928 193.69197895 21.26368713 188.45623779 C21.26679965 178.53628669 21.27501197 168.61634655 21.28503662 158.69640028 C21.29620023 147.40515546 21.30170884 136.11391013 21.30673206 124.82266116 C21.31719464 101.59076116 21.33553914 78.35887621 21.35705566 55.12698364 C-4.71294434 54.79698364 -30.78294434 54.46698364 -57.64294434 54.12698364 C-54.41643831 47.67397159 -54.41643831 47.67397159 -50.64294434 46.12698364 C-48.75856339 44.55649271 -48.75856339 44.55649271 -47.01794434 42.75198364 C-46.42755371 42.16674927 -45.83716309 41.58151489 -45.22888184 40.97854614 C-43.58547247 39.22048286 -43.58547247 39.22048286 -42.70935059 37.18557739 C-41.29966366 34.46431362 -39.40017917 32.69434947 -37.20544434 30.56448364 C-36.4229834 29.80006958 -35.64052246 29.03565552 -34.83435059 28.24807739 C-34.11118652 27.54811646 -33.38802246 26.84815552 -32.64294434 26.12698364 C-32.12474121 25.59846802 -31.60653809 25.06995239 -31.07263184 24.52542114 C-29.52517556 23.01178905 -27.88839564 21.67508793 -26.20544434 20.31448364 C-23.92699571 18.38111126 -22.49734954 16.90608119 -20.83044434 14.37698364 C-15.40474247 6.31594087 -9.88440621 0.00300097 0 0 Z " fill="#213694" transform="translate(561.6429443359375,327.8730163574219)"/>
<path d="M0 0 C1.36210146 2.72420292 1.10729746 4.84631467 1.08520508 7.89575195 C1.0744268 9.75457756 1.0744268 9.75457756 1.06343079 11.6509552 C1.04948277 13.0134044 1.03483108 14.37584656 1.01953125 15.73828125 C1.01257421 16.42630514 1.00561718 17.11432903 0.99844933 17.82320213 C0.96099031 21.47573442 0.91698616 25.12812356 0.86791992 28.78051758 C0.81897636 32.52107475 0.79249195 36.26142165 0.77148914 40.00222492 C0.75090528 42.90330566 0.71294741 45.80398698 0.6706295 48.70482445 C0.65349146 50.08118437 0.64264148 51.4576398 0.63868141 52.83410072 C0.59127596 65.59540691 -1.14984511 77.32758133 -10 87 C-10.45503906 87.54527344 -10.91007812 88.09054687 -11.37890625 88.65234375 C-16.80955283 94.67851816 -23.86961089 98.89215241 -30.56640625 103.36669922 C-34.13392238 105.76102936 -37.67629137 108.19172767 -41.22167969 110.61865234 C-49.34278405 116.17556476 -57.48516468 121.69802446 -65.69750977 127.11938477 C-68.48580822 128.88504746 -68.48580822 128.88504746 -71 131 C-71.10199183 132.59884783 -71.1356939 134.20211343 -71.1418457 135.80419922 C-71.14888016 136.82971893 -71.15591461 137.85523865 -71.16316223 138.91183472 C-71.16940865 140.59129684 -71.16940865 140.59129684 -71.17578125 142.3046875 C-71.19900133 144.66667536 -71.22311951 147.02865454 -71.24804688 149.390625 C-71.28301139 153.1208254 -71.312412 156.85071121 -71.32592773 160.58105469 C-71.34151356 164.17682504 -71.38181831 167.77166607 -71.42578125 171.3671875 C-71.42387283 172.46658661 -71.42196442 173.56598572 -71.41999817 174.69869995 C-71.62159996 187.62103595 -75.95673834 196.84955894 -85 206 C-94.16701904 214.20065686 -104.83601298 220.58017646 -115.1484375 227.21484375 C-121.36021363 231.21427665 -127.49292947 235.32731699 -133.5925293 239.49560547 C-138.78222012 243 -138.78222012 243 -141 243 C-141.24821068 225.90104406 -141.46660384 208.80199591 -141.65021229 191.70223045 C-141.73616233 183.76119996 -141.83159915 175.82050196 -141.94995117 167.87988281 C-142.05317002 160.9529398 -142.1379967 154.02604779 -142.20140952 147.09862196 C-142.23556285 143.43583631 -142.27846666 139.77365762 -142.34345436 136.11127853 C-142.41593785 132.00694229 -142.44732166 127.9032175 -142.47583008 123.79833984 C-142.5031572 122.60502548 -142.53048431 121.41171112 -142.55863953 120.18223572 C-142.57454879 108.42888011 -139.11370697 95.88150022 -131 87 C-129.98099609 86.51273438 -129.98099609 86.51273438 -128.94140625 86.015625 C-126.84405558 85.16718032 -126.84405558 85.16718032 -126.09936523 83.09082031 C-124.82358505 80.66448643 -123.79773869 79.93237333 -121.46875 78.53125 C-120.70046875 78.05776123 -119.9321875 77.58427246 -119.140625 77.09643555 C-117.83351563 76.30619995 -117.83351563 76.30619995 -116.5 75.5 C-105.16962763 68.4697903 -94.07946873 61.10518689 -83 53.6875 C-79.34182289 51.24117362 -75.68284497 48.79604798 -72.0234375 46.3515625 C-71.10787079 45.73992752 -70.19230408 45.12829254 -69.24899292 44.49812317 C-54.53450063 34.67584164 -39.74125165 24.97277857 -24.94439697 15.27520752 C-23.11877283 14.07789562 -21.29421388 12.87898496 -19.47021484 11.67919922 C-16.58645184 9.78283809 -13.70012129 7.89047855 -10.8125 6 C-10.02891113 5.48381104 -9.24532227 4.96762207 -8.43798828 4.43579102 C-5.64764993 2.6162161 -3.1749621 1.0583207 0 0 Z " fill="#213694" transform="translate(1211,228)"/>
<path d="M0 0 C2.1953125 0.3203125 2.1953125 0.3203125 4.3125 1.3125 C7.03068584 4.97614179 8.58660064 9.11088896 10.3125 13.3125 C10.9500708 14.76624125 11.59218461 16.21799658 12.23828125 17.66796875 C13.95889067 21.53730839 15.64320159 25.42076288 17.3125 29.3125 C22.31933926 19.94874773 26.26263449 10.11489531 30.3125 0.3125 C32.9525 0.6425 35.5925 0.9725 38.3125 1.3125 C38.3125 14.5125 38.3125 27.7125 38.3125 41.3125 C36.6625 41.3125 35.0125 41.3125 33.3125 41.3125 C32.03388385 38.75526771 32.19913391 36.94512898 32.21484375 34.0859375 C32.21806641 33.0546875 32.22128906 32.0234375 32.22460938 30.9609375 C32.23717773 29.34058594 32.23717773 29.34058594 32.25 27.6875 C32.25451172 26.59953125 32.25902344 25.5115625 32.26367188 24.390625 C32.27548224 21.69786211 32.29195222 19.00520812 32.3125 16.3125 C31.6525 16.3125 30.9925 16.3125 30.3125 16.3125 C30.18488281 17.04243164 30.05726563 17.77236328 29.92578125 18.52441406 C29.34356594 21.17126871 28.55524481 23.43195972 27.5 25.921875 C27.14679688 26.75847656 26.79359375 27.59507812 26.4296875 28.45703125 C26.06101562 29.31683594 25.69234375 30.17664063 25.3125 31.0625 C24.75949219 32.37541016 24.75949219 32.37541016 24.1953125 33.71484375 C21.45173518 40.17326482 21.45173518 40.17326482 20.3125 41.3125 C17.9375 41.625 17.9375 41.625 15.3125 41.3125 C13.03458783 38.73023968 11.62504436 36.06749555 10.3046875 32.90625 C9.95792969 32.07996094 9.61117188 31.25367188 9.25390625 30.40234375 C8.90199219 29.54769531 8.55007813 28.69304688 8.1875 27.8125 C7.82785156 26.95785156 7.46820313 26.10320313 7.09765625 25.22265625 C5.57512857 21.56744935 4.27665875 18.169135 3.3125 14.3125 C2.9825 23.2225 2.6525 32.1325 2.3125 41.3125 C0.3325 41.3125 -1.6475 41.3125 -3.6875 41.3125 C-5.32233632 38.04282737 -4.82920489 34.43216885 -4.8203125 30.83984375 C-4.82126923 30.00159561 -4.82222595 29.16334747 -4.82321167 28.29969788 C-4.8238926 26.52686488 -4.82204434 24.75402939 -4.81787109 22.98120117 C-4.81251493 20.25759323 -4.81782243 17.53414971 -4.82421875 14.81054688 C-4.82355808 13.09114547 -4.82227716 11.37174416 -4.8203125 9.65234375 C-4.82233673 8.83257553 -4.82436096 8.01280731 -4.82644653 7.16819763 C-4.79818887 0.40662618 -4.79818887 0.40662618 0 0 Z " fill="#EC1D25" transform="translate(282.6875,611.6875)"/>
<path d="M0 0 C4.00547831 0.6594385 5.43221716 2.72934936 7.75 5.9375 C8.77071797 7.46155826 9.79046754 8.98638027 10.79150391 10.5234375 C12.44532612 13.01509295 14.19355816 15.43562916 15.94213867 17.86132812 C17.95082781 20.65020852 19.94243029 23.45136055 21.9375 26.25 C22.2675 18 22.5975 9.75 22.9375 1.25 C24.9375 0.25 24.9375 0.25 29.9375 1.25 C29.9375 14.45 29.9375 27.65 29.9375 41.25 C23.9375 41.25 23.9375 41.25 22.28173828 39.87988281 C21.86134277 39.24405273 21.44094727 38.60822266 21.0078125 37.953125 C20.52610596 37.24671875 20.04439941 36.5403125 19.5480957 35.8125 C18.81272583 34.6678125 18.81272583 34.6678125 18.0625 33.5 C17.54582764 32.73171875 17.02915527 31.9634375 16.49682617 31.171875 C14.95818145 28.87646096 13.44677372 26.5647935 11.9375 24.25 C11.09983044 22.99333967 10.26018109 21.7379953 9.41796875 20.484375 C8.05710825 18.45411826 6.70428152 16.41842898 5.36328125 14.375 C4.10775623 12.35585315 4.10775623 12.35585315 2.9375 11.25 C2.6075 21.15 2.2775 31.05 1.9375 41.25 C0.2875 41.25 -1.3625 41.25 -3.0625 41.25 C-4.69733632 37.98032737 -4.20420489 34.36966885 -4.1953125 30.77734375 C-4.19626923 29.93909561 -4.19722595 29.10084747 -4.19821167 28.23719788 C-4.1988926 26.46436488 -4.19704434 24.69152939 -4.19287109 22.91870117 C-4.18751493 20.19509323 -4.19282243 17.47164971 -4.19921875 14.74804688 C-4.19855808 13.02864547 -4.19727716 11.30924416 -4.1953125 9.58984375 C-4.19733673 8.77007553 -4.19936096 7.95030731 -4.20144653 7.10569763 C-4.17317441 0.3406673 -4.17317441 0.3406673 0 0 Z M22.9375 26.25 C23.9375 30.25 23.9375 30.25 23.9375 30.25 Z " fill="#213694" transform="translate(676.0625,611.75)"/>
<path d="M0 0 C3.25224358 0.45341339 4.31637442 1.15483892 6.56494141 3.61279297 C8.75473431 6.76123428 10.78318505 9.96552764 12.76953125 13.24609375 C14.15188496 15.46971477 15.54839677 17.68387997 16.9453125 19.8984375 C17.54899658 20.88706787 18.15268066 21.87569824 18.7746582 22.89428711 C20.39251743 25.52957374 20.39251743 25.52957374 23.45703125 27.30859375 C23.78703125 18.72859375 24.11703125 10.14859375 24.45703125 1.30859375 C26.10703125 1.30859375 27.75703125 1.30859375 29.45703125 1.30859375 C29.45703125 14.50859375 29.45703125 27.70859375 29.45703125 41.30859375 C27.47703125 41.30859375 25.49703125 41.30859375 23.45703125 41.30859375 C21.4529058 39.11591334 20.03785416 37.23491101 18.49609375 34.74609375 C18.06066254 34.0802124 17.62523132 33.41433105 17.17660522 32.72827148 C15.79170913 30.60058646 14.43692355 28.45548088 13.08203125 26.30859375 C12.14775646 24.86203736 11.21157965 23.41670752 10.2734375 21.97265625 C7.97508727 18.43360369 5.71841167 14.87249536 3.45703125 11.30859375 C3.12703125 21.20859375 2.79703125 31.10859375 2.45703125 41.30859375 C0.47703125 41.30859375 -1.50296875 41.30859375 -3.54296875 41.30859375 C-5.17780507 38.03892112 -4.68467364 34.4282626 -4.67578125 30.8359375 C-4.67673798 29.99768936 -4.6776947 29.15944122 -4.67868042 28.29579163 C-4.67936135 26.52295863 -4.67751309 24.75012314 -4.67333984 22.97729492 C-4.66798368 20.25368698 -4.67329118 17.53024346 -4.6796875 14.80664062 C-4.67902683 13.08723922 -4.67774591 11.36783791 -4.67578125 9.6484375 C-4.67780548 8.82866928 -4.67982971 8.00890106 -4.68191528 7.16429138 C-4.65366855 0.40533607 -4.65366855 0.40533607 0 0 Z " fill="#EC1D25" transform="translate(192.54296875,611.69140625)"/>
<path d="M0 0 C5.09461183 0.08758921 8.46777724 0.39262017 12.43212891 3.91162109 C16.40750187 8.36330602 16.75981779 11.88934198 16.72900391 17.76708984 C16.15939023 21.50649813 14.75453273 23.05075667 11.91259766 25.41552734 C10.39214012 26.47725803 8.85014216 27.50794559 7.30712891 28.53662109 C7.63712891 29.52662109 7.96712891 30.51662109 8.30712891 31.53662109 C8.96712891 31.53662109 9.62712891 31.53662109 10.30712891 31.53662109 C11.63134766 32.96240234 11.63134766 32.96240234 12.99462891 34.84912109 C13.45224609 35.46400391 13.90986328 36.07888672 14.38134766 36.71240234 C14.68685547 37.31439453 14.99236328 37.91638672 15.30712891 38.53662109 C14.97712891 39.52662109 14.64712891 40.51662109 14.30712891 41.53662109 C12.02905273 41.77832031 12.02905273 41.77832031 9.30712891 41.53662109 C7.4543457 39.91601562 7.4543457 39.91601562 5.75634766 37.66943359 C5.14082031 36.86634766 4.52529297 36.06326172 3.89111328 35.23583984 C3.26527344 34.38634766 2.63943359 33.53685547 1.99462891 32.66162109 C1.34945312 31.81986328 0.70427734 30.97810547 0.03955078 30.11083984 C-4.69287109 23.85102255 -4.69287109 23.85102255 -4.69287109 21.53662109 C2.23712891 20.54662109 2.23712891 20.54662109 9.30712891 19.53662109 C9.20400391 17.92787109 9.10087891 16.31912109 8.99462891 14.66162109 C8.93662109 13.75669922 8.87861328 12.85177734 8.81884766 11.91943359 C8.51892501 9.17440508 8.51892501 9.17440508 5.30712891 7.53662109 C1.67712891 7.20662109 -1.95287109 6.87662109 -5.69287109 6.53662109 C-5.69287109 18.08662109 -5.69287109 29.63662109 -5.69287109 41.53662109 C-7.67287109 41.53662109 -9.65287109 41.53662109 -11.69287109 41.53662109 C-13.32770741 38.26694846 -12.83457598 34.65628994 -12.82568359 31.06396484 C-12.82664032 30.22571671 -12.82759705 29.38746857 -12.82858276 28.52381897 C-12.8292637 26.75098597 -12.82741544 24.97815048 -12.82324219 23.20532227 C-12.81788603 20.48171433 -12.82319352 17.7582708 -12.82958984 15.03466797 C-12.82892918 13.31526656 -12.82764826 11.59586526 -12.82568359 9.87646484 C-12.82770782 9.05669662 -12.82973206 8.23692841 -12.83181763 7.39231873 C-12.79340182 -1.79992075 -7.86376343 0.10948251 0 0 Z M10.30712891 12.53662109 C10.30712891 14.18662109 10.30712891 15.83662109 10.30712891 17.53662109 C10.63712891 17.53662109 10.96712891 17.53662109 11.30712891 17.53662109 C11.30712891 15.88662109 11.30712891 14.23662109 11.30712891 12.53662109 C10.97712891 12.53662109 10.64712891 12.53662109 10.30712891 12.53662109 Z " fill="#213692" transform="translate(827.69287109375,611.46337890625)"/>
<path d="M0 0 C0.79535156 -0.02900391 1.59070313 -0.05800781 2.41015625 -0.08789062 C8.25097493 -0.15023105 11.59089908 0.92607078 16.375 4.3125 C19.31499469 8.39055715 19.9627102 12.20750707 19.796875 17.1328125 C18.77152824 22.43043741 14.51177148 25.24822483 10.375 28.3125 C10.375 28.9725 10.375 29.6325 10.375 30.3125 C11.035 30.3125 11.695 30.3125 12.375 30.3125 C12.705 31.6325 13.035 32.9525 13.375 34.3125 C14.035 34.3125 14.695 34.3125 15.375 34.3125 C19.375 39.72426471 19.375 39.72426471 19.375 42.3125 C15.23915826 42.08105387 13.01166992 41.89293409 9.8984375 39.0546875 C9.18945312 38.10851562 8.48046875 37.16234375 7.75 36.1875 C6.99589844 35.19621094 6.24179687 34.20492187 5.46484375 33.18359375 C4.77519531 32.23613281 4.08554687 31.28867187 3.375 30.3125 C2.81941406 29.58160156 2.26382812 28.85070312 1.69140625 28.09765625 C-1.625 23.65385977 -1.625 23.65385977 -1.625 21.3125 C-0.34302734 21.11333984 -0.34302734 21.11333984 0.96484375 20.91015625 C2.06957031 20.73355469 3.17429687 20.55695312 4.3125 20.375 C5.41464844 20.20097656 6.51679688 20.02695312 7.65234375 19.84765625 C10.27926929 19.59404864 10.27926929 19.59404864 11.375 18.3125 C11.69139397 14.28201267 11.69139397 14.28201267 11.375 10.3125 C7.77749456 6.07481016 7.77749456 6.07481016 -2.625 6.3125 C-2.955 17.8625 -3.285 29.4125 -3.625 41.3125 C-5.275 41.3125 -6.925 41.3125 -8.625 41.3125 C-10.25983632 38.04282737 -9.76670489 34.43216885 -9.7578125 30.83984375 C-9.75876923 30.00159561 -9.75972595 29.16334747 -9.76071167 28.29969788 C-9.7613926 26.52686488 -9.75954434 24.75402939 -9.75537109 22.98120117 C-9.75001493 20.25759323 -9.75532243 17.53414971 -9.76171875 14.81054688 C-9.76105808 13.09114547 -9.75977716 11.37174416 -9.7578125 9.65234375 C-9.75983673 8.83257553 -9.76186096 8.01280731 -9.76394653 7.16819763 C-9.72989258 -0.98032603 -7.3973002 0.08736969 0 0 Z M13.375 13.3125 C14.375 15.3125 14.375 15.3125 14.375 15.3125 Z " fill="#213692" transform="translate(403.625,611.6875)"/>
<path d="M0 0 C7 0 7 0 9.23168945 2.18725586 C9.85261475 3.18635986 10.47354004 4.18546387 11.11328125 5.21484375 C11.80357422 6.29314453 12.49386719 7.37144531 13.20507812 8.48242188 C13.90855981 9.63349931 14.61102262 10.78520002 15.3125 11.9375 C16.71722143 14.180946 18.13435765 16.41623674 19.55078125 18.65234375 C20.16606689 19.65257568 20.78135254 20.65280762 21.4152832 21.68334961 C22.79199783 24.09838867 22.79199783 24.09838867 25 25 C25.33 25.99 25.66 26.98 26 28 C26.33 18.76 26.66 9.52 27 0 C28.65 0 30.3 0 32 0 C32 13.2 32 26.4 32 40 C27 40 27 40 25.26171875 38.453125 C24.74222656 37.72609375 24.22273438 36.9990625 23.6875 36.25 C23.09582031 35.43273437 22.50414062 34.61546875 21.89453125 33.7734375 C19.18555261 29.80771619 16.50044613 25.82898787 13.8671875 21.8125 C12.29935155 19.4509061 10.681899 17.15554102 9 14.875 C7 12 7 12 7 10 C6.34 10 5.68 10 5 10 C5 19.9 5 29.8 5 40 C3.35 40 1.7 40 0 40 C0 26.8 0 13.6 0 0 Z " fill="#223795" transform="translate(480,613)"/>
<path d="M0 0 C3.69897461 1.06787109 3.69897461 1.06787109 4.94186401 2.57684326 C6.06601511 4.72860043 6.99082254 6.89566536 7.88256836 9.15380859 C8.22780045 9.96653229 8.57303253 10.77925598 8.9287262 11.61660767 C10.02431181 14.21523285 11.0797991 16.82821802 12.13647461 19.44287109 C12.87297819 21.19649727 13.61188394 22.94911664 14.35327148 24.70068359 C19.69897461 37.47414162 19.69897461 37.47414162 19.69897461 41.06787109 C17.71897461 41.06787109 15.73897461 41.06787109 13.69897461 41.06787109 C11.71897461 37.10787109 9.73897461 33.14787109 7.69897461 29.06787109 C2.74897461 29.06787109 -2.20102539 29.06787109 -7.30102539 29.06787109 C-9.28102539 33.02787109 -11.26102539 36.98787109 -13.30102539 41.06787109 C-15.28102539 41.06787109 -17.26102539 41.06787109 -19.30102539 41.06787109 C-20.76070028 36.68884643 -18.72187091 33.73277106 -16.93383789 29.71630859 C-16.5796579 28.90167145 -16.22547791 28.0870343 -15.86056519 27.24771118 C-15.11001114 25.52597326 -14.354849 23.80623794 -13.59545898 22.08837891 C-12.42925087 19.45016782 -11.27602364 16.80659355 -10.12524414 14.16162109 C-9.39552224 12.49202364 -8.66507796 10.82274169 -7.93383789 9.15380859 C-7.58588165 8.35905121 -7.23792542 7.56429382 -6.87942505 6.74545288 C-3.93020442 0.0808074 -3.93020442 0.0808074 0 0 Z M-1.30102539 10.06787109 C-2.62102539 13.69787109 -3.94102539 17.32787109 -5.30102539 21.06787109 C-3.63759702 22.73129946 -1.51845449 22.42835206 0.76147461 22.63037109 C2.39084961 22.77474609 4.02022461 22.91912109 5.69897461 23.06787109 C4.04897461 18.77787109 2.39897461 14.48787109 0.69897461 10.06787109 C0.03897461 10.06787109 -0.62102539 10.06787109 -1.30102539 10.06787109 Z " fill="#223795" transform="translate(449.301025390625,611.93212890625)"/>
<path d="M0 0 C3.69897461 1.06787109 3.69897461 1.06787109 4.94186401 2.57684326 C6.06601511 4.72860043 6.99082254 6.89566536 7.88256836 9.15380859 C8.22780045 9.96653229 8.57303253 10.77925598 8.9287262 11.61660767 C10.02431181 14.21523285 11.0797991 16.82821802 12.13647461 19.44287109 C12.87297819 21.19649727 13.61188394 22.94911664 14.35327148 24.70068359 C19.69897461 37.47414162 19.69897461 37.47414162 19.69897461 41.06787109 C17.71897461 41.06787109 15.73897461 41.06787109 13.69897461 41.06787109 C11.71897461 37.10787109 9.73897461 33.14787109 7.69897461 29.06787109 C2.74897461 29.06787109 -2.20102539 29.06787109 -7.30102539 29.06787109 C-9.28102539 33.02787109 -11.26102539 36.98787109 -13.30102539 41.06787109 C-15.28102539 41.06787109 -17.26102539 41.06787109 -19.30102539 41.06787109 C-18.74880348 35.61556467 -17.36113689 31.20677817 -15.17602539 26.20068359 C-14.86906738 25.48049042 -14.56210938 24.76029724 -14.24584961 24.01828003 C-13.60082999 22.50904643 -12.95184317 21.00150271 -12.29907227 19.49560547 C-11.29636932 17.18212843 -10.30551335 14.86385572 -9.31665039 12.54443359 C-8.68711646 11.07539441 -8.05693145 9.60663402 -7.42602539 8.13818359 C-7.12809082 7.44346954 -6.83015625 6.74875549 -6.52319336 6.0329895 C-3.93920003 0.08099235 -3.93920003 0.08099235 0 0 Z M-1.30102539 10.06787109 C-2.62102539 13.69787109 -3.94102539 17.32787109 -5.30102539 21.06787109 C-4.64102539 21.72787109 -3.98102539 22.38787109 -3.30102539 23.06787109 C-1.30786869 23.09163036 -1.30786869 23.09163036 0.82397461 22.69287109 C2.10272461 22.48662109 3.38147461 22.28037109 4.69897461 22.06787109 C4.49401367 21.45298828 4.28905273 20.83810547 4.07788086 20.20458984 C2.95157878 16.82568359 1.82527669 13.44677734 0.69897461 10.06787109 C0.03897461 10.06787109 -0.62102539 10.06787109 -1.30102539 10.06787109 Z " fill="#EC1D25" transform="translate(252.301025390625,611.93212890625)"/>
<path d="M0 0 C1.9981527 1.48734675 3.7578025 3.03473353 5.515625 4.796875 C6.340625 5.539375 7.165625 6.281875 8.015625 7.046875 C9.515625 8.796875 9.515625 8.796875 9.515625 10.796875 C7.205625 10.796875 4.895625 10.796875 2.515625 10.796875 C2.515625 10.136875 2.515625 9.476875 2.515625 8.796875 C1.855625 8.796875 1.195625 8.796875 0.515625 8.796875 C0.515625 8.136875 0.515625 7.476875 0.515625 6.796875 C-5.34342861 5.04807002 -10.15542606 4.08045049 -15.921875 6.546875 C-20.53626204 9.24044064 -22.47017574 12.24950754 -24.0625 17.296875 C-24.69167207 21.02530205 -24.10950598 23.41118545 -22.484375 26.796875 C-19.42325945 30.70243622 -16.30163247 32.45254353 -11.375 33.0546875 C-5.79404373 33.33560812 -2.99456469 32.28202158 1.515625 28.796875 C5.97788915 26.61762972 5.97788915 26.61762972 9.515625 27.796875 C8.96686177 31.56338628 7.50798651 33.06339761 4.640625 35.484375 C3.94195313 36.08636719 3.24328125 36.68835938 2.5234375 37.30859375 C-2.6299807 41.12853993 -9.38008851 40.18972512 -15.484375 39.796875 C-21.72031446 37.91432724 -27.28057378 32.35850213 -30.6953125 26.83984375 C-32.44826028 22.30127103 -32.19201128 17.20368581 -30.83203125 12.578125 C-28.19803697 6.69968284 -23.9379129 2.47728774 -18.15625 -0.3359375 C-12.43062275 -2.19425512 -5.50320346 -2.66507337 0 0 Z " fill="#213693" transform="translate(553.484375,613.203125)"/>
<path d="M0 0 C0.9583374 0.04713135 1.9166748 0.0942627 2.90405273 0.14282227 C3.93852539 0.19116211 4.97299805 0.23950195 6.03881836 0.28930664 C7.12743164 0.34538086 8.21604492 0.40145508 9.33764648 0.45922852 C10.43012695 0.51143555 11.52260742 0.56364258 12.64819336 0.61743164 C15.35743724 0.74756999 18.06635442 0.88254906 20.77514648 1.02172852 C20.77514648 2.67172852 20.77514648 4.32172852 20.77514648 6.02172852 C15.16514648 6.02172852 9.55514648 6.02172852 3.77514648 6.02172852 C4.10514648 9.65172852 4.43514648 13.28172852 4.77514648 17.02172852 C5.76256836 17.01012695 6.74999023 16.99852539 7.76733398 16.98657227 C9.04866211 16.97754883 10.32999023 16.96852539 11.65014648 16.95922852 C12.92631836 16.94762695 14.20249023 16.93602539 15.51733398 16.92407227 C18.77514648 17.02172852 18.77514648 17.02172852 20.77514648 18.02172852 C20.77514648 19.67172852 20.77514648 21.32172852 20.77514648 23.02172852 C12.36014648 23.51672852 12.36014648 23.51672852 3.77514648 24.02172852 C4.10514648 27.65172852 4.43514648 31.28172852 4.77514648 35.02172852 C5.76256836 35.01012695 6.74999023 34.99852539 7.76733398 34.98657227 C9.04866211 34.97754883 10.32999023 34.96852539 11.65014648 34.95922852 C12.92631836 34.94762695 14.20249023 34.93602539 15.51733398 34.92407227 C18.77514648 35.02172852 18.77514648 35.02172852 20.77514648 36.02172852 C20.77514648 37.67172852 20.77514648 39.32172852 20.77514648 41.02172852 C13.18514648 41.02172852 5.59514648 41.02172852 -2.22485352 41.02172852 C-3.85968983 37.75205588 -3.3665584 34.14139737 -3.35766602 30.54907227 C-3.35862274 29.71082413 -3.35957947 28.87257599 -3.36056519 28.00892639 C-3.36124612 26.23609339 -3.35939786 24.4632579 -3.35522461 22.69042969 C-3.34986845 19.96682175 -3.35517594 17.24337822 -3.36157227 14.51977539 C-3.3609116 12.80037398 -3.35963068 11.08097268 -3.35766602 9.36157227 C-3.35969025 8.54180405 -3.36171448 7.72203583 -3.36380005 6.87742615 C-3.33519434 0.0325724 -3.33519434 0.0325724 0 0 Z " fill="#223795" transform="translate(782.224853515625,611.978271484375)"/>
<path d="M0 0 C0.9583374 0.04713135 1.9166748 0.0942627 2.90405273 0.14282227 C3.93852539 0.19116211 4.97299805 0.23950195 6.03881836 0.28930664 C7.12743164 0.34538086 8.21604492 0.40145508 9.33764648 0.45922852 C10.43012695 0.51143555 11.52260742 0.56364258 12.64819336 0.61743164 C15.35743724 0.74756999 18.06635442 0.88254906 20.77514648 1.02172852 C20.77514648 2.67172852 20.77514648 4.32172852 20.77514648 6.02172852 C15.16514648 6.02172852 9.55514648 6.02172852 3.77514648 6.02172852 C4.10514648 9.65172852 4.43514648 13.28172852 4.77514648 17.02172852 C6.14799805 17.00432617 6.14799805 17.00432617 7.54858398 16.98657227 C9.33135742 16.97303711 9.33135742 16.97303711 11.15014648 16.95922852 C12.33350586 16.94762695 13.51686523 16.93602539 14.73608398 16.92407227 C17.77514648 17.02172852 17.77514648 17.02172852 19.77514648 18.02172852 C19.77514648 19.67172852 19.77514648 21.32172852 19.77514648 23.02172852 C14.49514648 23.02172852 9.21514648 23.02172852 3.77514648 23.02172852 C4.10514648 26.98172852 4.43514648 30.94172852 4.77514648 35.02172852 C5.76256836 35.01012695 6.74999023 34.99852539 7.76733398 34.98657227 C9.04866211 34.97754883 10.32999023 34.96852539 11.65014648 34.95922852 C12.92631836 34.94762695 14.20249023 34.93602539 15.51733398 34.92407227 C18.77514648 35.02172852 18.77514648 35.02172852 20.77514648 36.02172852 C20.77514648 37.67172852 20.77514648 39.32172852 20.77514648 41.02172852 C13.18514648 41.02172852 5.59514648 41.02172852 -2.22485352 41.02172852 C-3.85968983 37.75205588 -3.3665584 34.14139737 -3.35766602 30.54907227 C-3.35862274 29.71082413 -3.35957947 28.87257599 -3.36056519 28.00892639 C-3.36124612 26.23609339 -3.35939786 24.4632579 -3.35522461 22.69042969 C-3.34986845 19.96682175 -3.35517594 17.24337822 -3.36157227 14.51977539 C-3.3609116 12.80037398 -3.35963068 11.08097268 -3.35766602 9.36157227 C-3.35969025 8.54180405 -3.36171448 7.72203583 -3.36380005 6.87742615 C-3.33519434 0.0325724 -3.33519434 0.0325724 0 0 Z " fill="#EC1D25" transform="translate(125.224853515625,611.978271484375)"/>
<path d="M0 0 C2.89812088 1.56466267 5.0162197 3.37075088 7 6 C7.9375 9.375 7.9375 9.375 8 12 C5.1875 12.3125 5.1875 12.3125 2 12 C0.3125 9.5625 0.3125 9.5625 -1 7 C-4.28976808 5.90341064 -5.71303767 6.20046862 -9 7 C-9 8.98 -9 10.96 -9 13 C-8.19175781 13.38671875 -7.38351562 13.7734375 -6.55078125 14.171875 C-4.94783203 14.95304688 -4.94783203 14.95304688 -3.3125 15.75 C-2.25675781 16.26046875 -1.20101562 16.7709375 -0.11328125 17.296875 C7.3969315 21.40534772 7.3969315 21.40534772 8.8125 25.1484375 C9.24351032 30.26668502 9.10857294 33.64799788 6 38 C2.32735774 41.33876569 -1.62037579 41.68735084 -6.421875 41.55078125 C-11.00575305 40.57149821 -14.24731896 37.71576004 -17 34 C-17.83984375 31.38671875 -17.83984375 31.38671875 -18 29 C-17.34 28.34 -16.68 27.68 -16 27 C-13.375 27.375 -13.375 27.375 -11 28 C-10.34 29.98 -9.68 31.96 -9 34 C-7.52093108 34.02689216 -6.04172517 34.04634621 -4.5625 34.0625 C-3.32693359 34.07990234 -3.32693359 34.07990234 -2.06640625 34.09765625 C-0.00836062 34.23267348 -0.00836062 34.23267348 1 33 C1.46092097 28.94860525 1.46092097 28.94860525 -0.20703125 25.421875 C-2.35481233 23.71862378 -4.34619858 23.00565281 -6.9375 22.125 C-11.21515836 20.47878745 -13.72419903 19.15581047 -16 15 C-17 12.0625 -17 12.0625 -17 9 C-13.02542154 1.49246291 -8.50808323 -1.75881384 0 0 Z " fill="#213693" transform="translate(870,612)"/>
<path d="M0 0 C1.67542976 0.28604898 3.34385343 0.61781233 5 1 C5.01458252 1.75095947 5.02916504 2.50191895 5.04418945 3.27563477 C5.11903598 6.70508662 5.21557654 10.13360395 5.3125 13.5625 C5.33505859 14.74392578 5.35761719 15.92535156 5.38085938 17.14257812 C5.57592308 23.47328197 5.93626336 28.40642185 9 34 C10.258125 34.04125 11.51625 34.0825 12.8125 34.125 C13.87404297 34.15980469 13.87404297 34.15980469 14.95703125 34.1953125 C17.31359719 34.13254462 17.31359719 34.13254462 20 32 C20.51254128 28.7998894 20.51254128 28.7998894 20.51171875 25.0234375 C20.52966995 24.33819 20.54762115 23.6529425 20.56611633 22.94692993 C20.62033708 20.75634941 20.65415053 18.5659881 20.6875 16.375 C20.72066294 14.89059441 20.75515165 13.40621779 20.79101562 11.921875 C20.87606815 8.28146088 20.94282356 4.64097056 21 1 C23.31 1 25.62 1 28 1 C28.0744013 5.32328804 28.12871968 9.64623255 28.16479492 13.9699707 C28.17984066 15.43943782 28.20028238 16.90886034 28.22631836 18.37817383 C28.26288955 20.4957177 28.27976801 22.61266565 28.29296875 24.73046875 C28.3086792 26.00301514 28.32438965 27.27556152 28.34057617 28.58666992 C27.86917334 33.31117387 26.04208203 35.79509265 23 39.3125 C18.41762591 41.89008543 14.13579753 41.73260641 9 41 C4.69118473 39.0414476 2.12315878 36.55882014 -0.17749023 32.40551758 C-1.85564571 27.49757283 -1.46948145 22.26843959 -1.35668945 17.13671875 C-1.31215125 15.10912327 -1.29517581 13.08271432 -1.28320312 11.0546875 C-1.16812676 1.16812676 -1.16812676 1.16812676 0 0 Z " fill="#213694" transform="translate(631,612)"/>
<path d="M0 0 C2.31 0.33 4.62 0.66 7 1 C4.34134037 9.59025405 0.81853628 17.79429438 -2.6875 26.0625 C-3.30043814 27.51484404 -3.91307086 28.96731702 -4.52539062 30.41992188 C-6.01340977 33.94811109 -7.50555201 37.47452935 -9 41 C-11.75 41.375 -11.75 41.375 -15 41 C-18.42006853 37.01331794 -20.32274006 32.31919115 -22.26953125 27.484375 C-22.55479172 26.78733459 -22.84005219 26.09029419 -23.13395691 25.37213135 C-23.72959478 23.9112236 -24.32186449 22.44893841 -24.91088867 20.98535156 C-25.81721883 18.73830068 -26.73897266 16.49800327 -27.66210938 14.2578125 C-28.24051645 12.83371197 -28.81802324 11.40924537 -29.39453125 9.984375 C-29.67150345 9.31355896 -29.94847565 8.64274292 -30.23384094 7.95159912 C-30.88234533 6.3236273 -31.44914338 4.66355258 -32 3 C-31.67 2.34 -31.34 1.68 -31 1 C-29.02 1 -27.04 1 -25 1 C-21.04 10.57 -17.08 20.14 -13 30 C-9.80154213 22.96339269 -6.6619417 15.9410007 -3.6875 8.8125 C-3.32849609 7.95591797 -2.96949219 7.09933594 -2.59960938 6.21679688 C-1.731598 4.14514305 -0.86507146 2.07288275 0 0 Z " fill="#EC1D25" transform="translate(90,612)"/>
<path d="M0 0 C3.29321289 0.09741211 3.29321289 0.09741211 7 1 C8.89624023 3.77563477 8.89624023 3.77563477 10.30859375 7.44140625 C10.56504166 8.08367661 10.82148956 8.72594696 11.08570862 9.38768005 C11.89671276 11.43653507 12.66715084 13.4980604 13.4375 15.5625 C13.98111793 16.9560975 14.52731401 18.34869225 15.07617188 19.74023438 C16.4141973 23.14903995 17.71628202 26.57031817 19 30 C19.52956299 28.69011108 19.52956299 28.69011108 20.06982422 27.35375977 C21.38016804 24.12185124 22.69652983 20.8925352 24.01708984 17.66479492 C24.58789333 16.26605025 25.15626419 14.86631033 25.72216797 13.46557617 C26.53499371 11.45486451 27.35643863 9.44786891 28.1796875 7.44140625 C28.91807861 5.62684937 28.91807861 5.62684937 29.67138672 3.77563477 C31 1 31 1 33 0 C34.67654729 0.27942455 36.34608154 0.60828247 38 1 C37.39922777 5.95781504 35.84533632 10.2213538 33.875 14.76953125 C33.56804199 15.49113937 33.26108398 16.2127475 32.94482422 16.95622253 C32.29897803 18.47107374 31.64999717 19.98459196 30.99804688 21.49682617 C29.99685278 23.81980221 29.00546308 26.14677483 28.015625 28.47460938 C27.38598059 29.94815776 26.75579157 31.42147358 26.125 32.89453125 C25.82706543 33.59238235 25.52913086 34.29023346 25.22216797 35.00923157 C23.11686966 39.88313034 23.11686966 39.88313034 22 41 C20.00041636 41.04080783 17.99954746 41.04254356 16 41 C12.46552919 34.23989563 9.49086737 27.2685468 6.57128906 20.22607422 C5.74479662 18.23748034 4.90769803 16.25355846 4.0703125 14.26953125 C3.54101278 12.99766776 3.012344 11.72554147 2.484375 10.453125 C2.00709961 9.31004883 1.52982422 8.16697266 1.03808594 6.98925781 C0 4 0 4 0 0 Z " fill="#223795" transform="translate(732,612)"/>
<path d="M0 0 C7.26 0 14.52 0 22 0 C22 1.65 22 3.3 22 5 C16.72 5 11.44 5 6 5 C5.67 8.63 5.34 12.26 5 16 C6.05960938 15.98839844 7.11921875 15.97679687 8.2109375 15.96484375 C9.59895658 15.95546524 10.98697755 15.94636511 12.375 15.9375 C13.07367187 15.92912109 13.77234375 15.92074219 14.4921875 15.91210938 C19.7734375 15.88671875 19.7734375 15.88671875 22 17 C22 18.65 22 20.3 22 22 C20.92878906 22.06058594 19.85757813 22.12117187 18.75390625 22.18359375 C17.35675609 22.26798537 15.95962143 22.35263406 14.5625 22.4375 C13.85544922 22.47681641 13.14839844 22.51613281 12.41992188 22.55664062 C8.91309581 22.47624438 8.91309581 22.47624438 6 24 C5.76712992 25.68183948 5.58735834 27.3712416 5.4375 29.0625 C5.31181641 30.44115234 5.31181641 30.44115234 5.18359375 31.84765625 C5.12300781 32.55792969 5.06242188 33.26820313 5 34 C6.05960938 33.98839844 7.11921875 33.97679687 8.2109375 33.96484375 C9.59895658 33.95546524 10.98697755 33.94636511 12.375 33.9375 C13.07367187 33.92912109 13.77234375 33.92074219 14.4921875 33.91210938 C19.7734375 33.88671875 19.7734375 33.88671875 22 35 C22 36.65 22 38.3 22 40 C14.74 40 7.48 40 0 40 C0 26.8 0 13.6 0 0 Z " fill="#223795" transform="translate(573,613)"/>
<path d="M0 0 C3.22265625 0.03515625 3.22265625 0.03515625 7 1 C9.02048989 3.21666839 10.18510821 5.73023392 11.4375 8.4375 C11.78748047 9.13166016 12.13746094 9.82582031 12.49804688 10.54101562 C15 15.59877997 15 15.59877997 15 18 C18.51275526 16.82908158 18.65017234 16.33661933 20.26171875 13.18359375 C20.65810547 12.41982422 21.05449219 11.65605469 21.46289062 10.86914062 C21.86701172 10.06669922 22.27113281 9.26425781 22.6875 8.4375 C23.31108398 7.22803711 23.31108398 7.22803711 23.94726562 5.99414062 C24.97363362 4.0003913 25.99071198 2.00243503 27 0 C29.31 0.33 31.62 0.66 34 1 C32.77490509 3.64778578 31.54522924 6.29326968 30.3125 8.9375 C29.94890381 9.72294189 29.58530762 10.50838379 29.21069336 11.31762695 C27.35886574 15.27621125 25.44509023 19.015508 23.0625 22.6875 C19.79185703 28.24100786 20.09832101 34.71639336 20 41 C18.02 41 16.04 41 14 41 C12.68158973 38.36317945 12.96314147 36.32743195 12.9375 33.375 C12.39034401 25.15854091 8.97216357 19.00254746 5.06396484 11.94287109 C3.9227657 9.858965 2.82004376 7.75990378 1.73828125 5.64453125 C1.40481689 4.99460205 1.07135254 4.34467285 0.7277832 3.67504883 C0 2 0 2 0 0 Z " fill="#223795" transform="translate(935,612)"/>
<path d="M0 0 C6.93 0 13.86 0 21 0 C21 1.65 21 3.3 21 5 C16.05 5 11.1 5 6 5 C5.67 8.63 5.34 12.26 5 16 C6.37285156 15.98259766 6.37285156 15.98259766 7.7734375 15.96484375 C9.55621094 15.95130859 9.55621094 15.95130859 11.375 15.9375 C12.55835938 15.92589844 13.74171875 15.91429687 14.9609375 15.90234375 C18 16 18 16 20 17 C20 18.65 20 20.3 20 22 C19.07316406 22.06058594 18.14632813 22.12117187 17.19140625 22.18359375 C15.39509766 22.30927734 15.39509766 22.30927734 13.5625 22.4375 C12.36753906 22.51871094 11.17257812 22.59992187 9.94140625 22.68359375 C7.11429756 22.67656114 7.11429756 22.67656114 6 24 C5.76321284 26.69235776 5.57801975 29.36498156 5.4375 32.0625 C5.39431641 32.82111328 5.35113281 33.57972656 5.30664062 34.36132812 C5.20026367 36.24065438 5.09960066 38.12030244 5 40 C3.35 40 1.7 40 0 40 C0 26.8 0 13.6 0 0 Z " fill="#223795" transform="translate(362,613)"/>
<path d="M0 0 C7.92 0.33 15.84 0.66 24 1 C24 2.65 24 4.3 24 6 C21.36 6 18.72 6 16 6 C15.67 17.55 15.34 29.1 15 41 C13.35 41 11.7 41 10 41 C10 29.45 10 17.9 10 6 C7.03 6 4.06 6 1 6 C0.67 4.02 0.34 2.04 0 0 Z " fill="#223795" transform="translate(905,612)"/>
<path d="M0 0 C7.59 0 15.18 0 23 0 C23 1.65 23 3.3 23 5 C20.36 5 17.72 5 15 5 C14.67 16.55 14.34 28.1 14 40 C12.35 40 10.7 40 9 40 C9 28.45 9 16.9 9 5 C6.03 5 3.06 5 0 5 C0 3.35 0 1.7 0 0 Z " fill="#EC1D25" transform="translate(156,613)"/>
<path d="M0 0 C1.65 0.33 3.3 0.66 5 1 C5 14.2 5 27.4 5 41 C3.35 41 1.7 41 0 41 C-1.63483632 37.73032737 -1.14170489 34.11966885 -1.1328125 30.52734375 C-1.13376923 29.68909561 -1.13472595 28.85084747 -1.13571167 27.98719788 C-1.1363926 26.21436488 -1.13454434 24.44152939 -1.13037109 22.66870117 C-1.12501493 19.94509323 -1.13032243 17.22164971 -1.13671875 14.49804688 C-1.13605808 12.77864547 -1.13477716 11.05924416 -1.1328125 9.33984375 C-1.13483673 8.52007553 -1.13686096 7.70030731 -1.13894653 6.85569763 C-1.11495507 1.11495507 -1.11495507 1.11495507 0 0 Z " fill="#223795" transform="translate(890,612)"/>
<path d="M0 0 C1.65 0 3.3 0 5 0 C5 13.2 5 26.4 5 40 C3.02 40 1.04 40 -1 40 C-0.67 26.8 -0.34 13.6 0 0 Z " fill="#EC1D25" transform="translate(106,613)"/>
<path d="M0 0 C1.65 0 3.3 0 5 0 C5 13.2 5 26.4 5 40 C3.35 40 1.7 40 0 40 C0 26.8 0 13.6 0 0 Z " fill="#223795" transform="translate(720,613)"/>
<path d="M0 0 C0.33 0 0.66 0 1 0 C1 39.93 1 79.86 1 121 C0.67 121 0.34 121 0 121 C0 81.07 0 41.14 0 0 Z " fill="#223795" transform="translate(1068,346)"/>
<path d="M0 0 C0.33 0 0.66 0 1 0 C1 13.53 1 27.06 1 41 C0.67 41 0.34 41 0 41 C0 27.47 0 13.94 0 0 Z " fill="#EC1D25" transform="translate(1068,196)"/>
<path d="M0 0 C0.33 0 0.66 0 1 0 C1 12.54 1 25.08 1 38 C0.67 38 0.34 38 0 38 C0 25.46 0 12.92 0 0 Z " fill="#223795" transform="translate(718,613)"/>
<path d="M0 0 C0.33 0 0.66 0 1 0 C1 12.54 1 25.08 1 38 C0.67 38 0.34 38 0 38 C0 25.46 0 12.92 0 0 Z " fill="#223795" transform="translate(571,613)"/>
<path d="M0 0 C0.33 0 0.66 0 1 0 C1 12.54 1 25.08 1 38 C0.67 38 0.34 38 0 38 C0 25.46 0 12.92 0 0 Z " fill="#223795" transform="translate(478,613)"/>
<path d="M0 0 C0.33 0 0.66 0 1 0 C1 12.54 1 25.08 1 38 C0.67 38 0.34 38 0 38 C0 25.46 0 12.92 0 0 Z " fill="#223795" transform="translate(360,613)"/>
<path d="M0 0 C0.33 0 0.66 0 1 0 C1 12.54 1 25.08 1 38 C0.67 38 0.34 38 0 38 C0 25.46 0 12.92 0 0 Z " fill="#EC1D25" transform="translate(104,613)"/>
<path d="M0 0 C0.33 0 0.66 0 1 0 C1 10.56 1 21.12 1 32 C0.67 32 0.34 32 0 32 C0 21.44 0 10.88 0 0 Z " fill="#223795" transform="translate(913,619)"/>
<path d="M0 0 C0.33 0 0.66 0 1 0 C1 10.56 1 21.12 1 32 C0.67 32 0.34 32 0 32 C0 21.44 0 10.88 0 0 Z " fill="#EC1D25" transform="translate(163,619)"/>
<path d="M0 0 C0.33 0 0.66 0 1 0 C1 8.25 1 16.5 1 25 C0.67 25 0.34 25 0 25 C0 16.75 0 8.5 0 0 Z " fill="#EC1D25" transform="translate(215,613)"/>
<path d="M0 0 C0.33 0 0.66 0 1 0 C1 7.92 1 15.84 1 24 C0.67 24 0.34 24 0 24 C0 16.08 0 8.16 0 0 Z " fill="#223795" transform="translate(505,613)"/>
<path d="M0 0 C6.93 0 13.86 0 21 0 C21 0.33 21 0.66 21 1 C14.07 1 7.14 1 0 1 C0 0.67 0 0.34 0 0 Z " fill="#EC1D25" transform="translate(156,611)"/>
<path d="M0 0 C6.6 0 13.2 0 20 0 C20 0.33 20 0.66 20 1 C13.4 1 6.8 1 0 1 C0 0.67 0 0.34 0 0 Z " fill="#223795" transform="translate(907,611)"/>
<path d="M0 0 C6.6 0 13.2 0 20 0 C20 0.33 20 0.66 20 1 C13.4 1 6.8 1 0 1 C0 0.67 0 0.34 0 0 Z " fill="#223795" transform="translate(781,611)"/>
<path d="M0 0 C6.6 0 13.2 0 20 0 C20 0.33 20 0.66 20 1 C13.4 1 6.8 1 0 1 C0 0.67 0 0.34 0 0 Z " fill="#223795" transform="translate(573,611)"/>
<path d="M0 0 C6.6 0 13.2 0 20 0 C20 0.33 20 0.66 20 1 C13.4 1 6.8 1 0 1 C0 0.67 0 0.34 0 0 Z " fill="#EC1D25" transform="translate(124,611)"/>
<path d="M0 0 C6.27 0 12.54 0 19 0 C19 0.33 19 0.66 19 1 C12.73 1 6.46 1 0 1 C0 0.67 0 0.34 0 0 Z " fill="#223795" transform="translate(362,611)"/>
<path d="M0 0 C4.95 0 9.9 0 15 0 C15 0.33 15 0.66 15 1 C10.05 1 5.1 1 0 1 C0 0.67 0 0.34 0 0 Z " fill="#223795" transform="translate(817,611)"/>
<path d="M0 0 C4.62 0 9.24 0 14 0 C14 0.33 14 0.66 14 1 C9.38 1 4.76 1 0 1 C0 0.67 0 0.34 0 0 Z " fill="#223795" transform="translate(396,611)"/>
<path d="M0 0 C1.98 0 3.96 0 6 0 C6 0.33 6 0.66 6 1 C4.02 1 2.04 1 0 1 C0 0.67 0 0.34 0 0 Z " fill="#223795" transform="translate(541,611)"/>
<path d="M0 0 C1.65 0 3.3 0 5 0 C5 0.33 5 0.66 5 1 C3.35 1 1.7 1 0 1 C0 0.67 0 0.34 0 0 Z " fill="#EC1D25" transform="translate(280,611)"/>
<path d="M0 0 C0 0.99 0 1.98 0 3 C-0.66 2.67 -1.32 2.34 -2 2 C-1.34 1.34 -0.68 0.68 0 0 Z " fill="#0D163C" transform="translate(249,546)"/>
<path d="M0 0 C0 0.99 0 1.98 0 3 C-0.66 2.67 -1.32 2.34 -2 2 C-1.34 1.34 -0.68 0.68 0 0 Z " fill="#0D163C" transform="translate(481,373)"/>
<path d="M0 0 C4 1 4 1 4 1 Z " fill="#223795" transform="translate(864,611)"/>
<path d="M0 0 C4 1 4 1 4 1 Z " fill="#223795" transform="translate(480,611)"/>
<path d="M0 0 C4 1 4 1 4 1 Z " fill="#EC1D25" transform="translate(315,611)"/>
<path d="M0 0 C4 1 4 1 4 1 Z " fill="#EC1D25" transform="translate(190,611)"/>
<path d="M0 0 C3 1 3 1 3 1 Z " fill="#223795" transform="translate(936,611)"/>
<path d="M0 0 C3 1 3 1 3 1 Z " fill="#223795" transform="translate(733,611)"/>
<path d="M0 0 C3 1 3 1 3 1 Z " fill="#223795" transform="translate(720,611)"/>
<path d="M0 0 C3 1 3 1 3 1 Z " fill="#223795" transform="translate(674,611)"/>
<path d="M0 0 C3 1 3 1 3 1 Z " fill="#223795" transform="translate(654,611)"/>
<path d="M0 0 C3 1 3 1 3 1 Z " fill="#223795" transform="translate(507,611)"/>
<path d="M0 0 C3 1 3 1 3 1 Z " fill="#223795" transform="translate(447,611)"/>
<path d="M0 0 C3 1 3 1 3 1 Z " fill="#EC1D25" transform="translate(250,611)"/>
<path d="M0 0 C3 1 3 1 3 1 Z " fill="#EC1D25" transform="translate(217,611)"/>
<path d="M0 0 C3 1 3 1 3 1 Z " fill="#EC1D25" transform="translate(106,611)"/>
<path d="M0 0 C3 1 3 1 3 1 Z " fill="#EC1D25" transform="translate(59,611)"/>
<path d="M0 0 C0.33 0.66 0.66 1.32 1 2 C0.34 1.67 -0.32 1.34 -1 1 C-0.67 0.67 -0.34 0.34 0 0 Z " fill="#0B1233" transform="translate(264,531)"/>
<path d="M0 0 C0.33 0.66 0.66 1.32 1 2 C0.34 1.67 -0.32 1.34 -1 1 C-0.67 0.67 -0.34 0.34 0 0 Z " fill="#0B1233" transform="translate(503,350)"/>
<path d="" fill="#111B4B" transform="translate(0,0)"/>
<path d="" fill="#EC1D25" transform="translate(0,0)"/>
<path d="M0 0 C2 1 2 1 2 1 Z " fill="#223795" transform="translate(891,611)"/>
<path d="M0 0 C2 1 2 1 2 1 Z " fill="#223795" transform="translate(701,611)"/>
<path d="M0 0 C2 1 2 1 2 1 Z " fill="#223795" transform="translate(632,611)"/>
<path d="" fill="#223795" transform="translate(0,0)"/>
<path d="" fill="#000002" transform="translate(0,0)"/>
<path d="" fill="#223795" transform="translate(0,0)"/>
<path d="" fill="#223795" transform="translate(0,0)"/>
<path d="" fill="#223795" transform="translate(0,0)"/>
<path d="" fill="#223795" transform="translate(0,0)"/>
<path d="" fill="#223795" transform="translate(0,0)"/>
<path d="" fill="#223795" transform="translate(0,0)"/>
<path d="" fill="#223795" transform="translate(0,0)"/>
<path d="" fill="#EC1D25" transform="translate(0,0)"/>
<path d="" fill="#EC1D25" transform="translate(0,0)"/>
<path d="" fill="#EC1D25" transform="translate(0,0)"/>
<path d="" fill="#EC1D25" transform="translate(0,0)"/>
<path d="" fill="#223795" transform="translate(0,0)"/>
<path d="" fill="#EC1D25" transform="translate(0,0)"/>
<path d="" fill="#223795" transform="translate(0,0)"/>
<path d="" fill="#223795" transform="translate(0,0)"/>
<path d="" fill="#223795" transform="translate(0,0)"/>
<path d="" fill="#223795" transform="translate(0,0)"/>
<path d="" fill="#223795" transform="translate(0,0)"/>
<path d="" fill="#223795" transform="translate(0,0)"/>
<path d="" fill="#223795" transform="translate(0,0)"/>
<path d="" fill="#223795" transform="translate(0,0)"/>
<path d="" fill="#223795" transform="translate(0,0)"/>
<path d="" fill="#223795" transform="translate(0,0)"/>
<path d="" fill="#223795" transform="translate(0,0)"/>
<path d="" fill="#223795" transform="translate(0,0)"/>
<path d="" fill="#000002" transform="translate(0,0)"/>
<path d="" fill="#223795" transform="translate(0,0)"/>
<path d="" fill="#000002" transform="translate(0,0)"/>
<path d="" fill="#223795" transform="translate(0,0)"/>
<path d="" fill="#000002" transform="translate(0,0)"/>
<path d="" fill="#000002" transform="translate(0,0)"/>
<path d="" fill="#223795" transform="translate(0,0)"/>
<path d="" fill="#000002" transform="translate(0,0)"/>
<path d="" fill="#000002" transform="translate(0,0)"/>
<path d="" fill="#000002" transform="translate(0,0)"/>
<path d="" fill="#000002" transform="translate(0,0)"/>
<path d="" fill="#000002" transform="translate(0,0)"/>
<path d="" fill="#223795" transform="translate(0,0)"/>
<path d="" fill="#223795" transform="translate(0,0)"/>
<path d="" fill="#223795" transform="translate(0,0)"/>
<path d="" fill="#223795" transform="translate(0,0)"/>
<path d="" fill="#223795" transform="translate(0,0)"/>
<path d="" fill="#223795" transform="translate(0,0)"/>
<path d="" fill="#223795" transform="translate(0,0)"/>
<path d="" fill="#223795" transform="translate(0,0)"/>
<path d="" fill="#223795" transform="translate(0,0)"/>
<path d="" fill="#223795" transform="translate(0,0)"/>
<path d="" fill="#223795" transform="translate(0,0)"/>
<path d="" fill="#223795" transform="translate(0,0)"/>
<path d="" fill="#223795" transform="translate(0,0)"/>
<path d="" fill="#223795" transform="translate(0,0)"/>
<path d="" fill="#223795" transform="translate(0,0)"/>
<path d="" fill="#223795" transform="translate(0,0)"/>
<path d="" fill="#000002" transform="translate(0,0)"/>
<path d="" fill="#000002" transform="translate(0,0)"/>
<path d="" fill="#000002" transform="translate(0,0)"/>
<path d="" fill="#000002" transform="translate(0,0)"/>
<path d="" fill="#223795" transform="translate(0,0)"/>
<path d="" fill="#223795" transform="translate(0,0)"/>
<path d="" fill="#223795" transform="translate(0,0)"/>
<path d="" fill="#223795" transform="translate(0,0)"/>
<path d="" fill="#000002" transform="translate(0,0)"/>
<path d="" fill="#223795" transform="translate(0,0)"/>
<path d="" fill="#000002" transform="translate(0,0)"/>
<path d="" fill="#223795" transform="translate(0,0)"/>
<path d="" fill="#000002" transform="translate(0,0)"/>
<path d="" fill="#223795" transform="translate(0,0)"/>
<path d="" fill="#000002" transform="translate(0,0)"/>
<path d="" fill="#223795" transform="translate(0,0)"/>
<path d="" fill="#000002" transform="translate(0,0)"/>
<path d="" fill="#223795" transform="translate(0,0)"/>
<path d="" fill="#000002" transform="translate(0,0)"/>
<path d="" fill="#223795" transform="translate(0,0)"/>
<path d="" fill="#000002" transform="translate(0,0)"/>
<path d="" fill="#000002" transform="translate(0,0)"/>
<path d="" fill="#000002" transform="translate(0,0)"/>
<path d="" fill="#000002" transform="translate(0,0)"/>
<path d="" fill="#223795" transform="translate(0,0)"/>
<path d="" fill="#223795" transform="translate(0,0)"/>
<path d="" fill="#223795" transform="translate(0,0)"/>
<path d="" fill="#000002" transform="translate(0,0)"/>
<path d="" fill="#223795" transform="translate(0,0)"/>
<path d="" fill="#000002" transform="translate(0,0)"/>
<path d="" fill="#223795" transform="translate(0,0)"/>
<path d="" fill="#000002" transform="translate(0,0)"/>
<path d="" fill="#223795" transform="translate(0,0)"/>
<path d="" fill="#000002" transform="translate(0,0)"/>
<path d="" fill="#223795" transform="translate(0,0)"/>
<path d="" fill="#000002" transform="translate(0,0)"/>
<path d="" fill="#223795" transform="translate(0,0)"/>
<path d="" fill="#000002" transform="translate(0,0)"/>
<path d="" fill="#223795" transform="translate(0,0)"/>
<path d="" fill="#000002" transform="translate(0,0)"/>
<path d="" fill="#223795" transform="translate(0,0)"/>
<path d="" fill="#000002" transform="translate(0,0)"/>
<path d="" fill="#000002" transform="translate(0,0)"/>
<path d="" fill="#000002" transform="translate(0,0)"/>
<path d="" fill="#223795" transform="translate(0,0)"/>
<path d="" fill="#223795" transform="translate(0,0)"/>
<path d="" fill="#223795" transform="translate(0,0)"/>
<path d="" fill="#223795" transform="translate(0,0)"/>
</svg>
